<?xml version="1.0" encoding="UTF-8" standalone="no"?>
<!-- Created with Inkscape (http://www.inkscape.org/) -->

<svg
   width="90mm"
   height="90mm"
   viewBox="0 0 90 90"
   version="1.1"
   id="svg5"
   inkscape:version="1.2.2 (b0a8486541, 2022-12-01)"
   sodipodi:docname="paper.svg"
   xml:space="preserve"
   xmlns:inkscape="http://www.inkscape.org/namespaces/inkscape"
   xmlns:sodipodi="http://sodipodi.sourceforge.net/DTD/sodipodi-0.dtd"
   xmlns="http://www.w3.org/2000/svg"
   xmlns:svg="http://www.w3.org/2000/svg"><sodipodi:namedview
     id="namedview7"
     pagecolor="#505050"
     bordercolor="#ffffff"
     borderopacity="1"
     inkscape:showpageshadow="0"
     inkscape:pageopacity="0"
     inkscape:pagecheckerboard="1"
     inkscape:deskcolor="#505050"
     inkscape:document-units="mm"
     showgrid="false"
     inkscape:zoom="1.4142136"
     inkscape:cx="-47.376154"
     inkscape:cy="105.35891"
     inkscape:window-width="1920"
     inkscape:window-height="1011"
     inkscape:window-x="0"
     inkscape:window-y="0"
     inkscape:window-maximized="1"
     inkscape:current-layer="layer1" /><defs
     id="defs2"><inkscape:path-effect
       effect="fillet_chamfer"
       id="path-effect30922"
       is_visible="true"
       lpeversion="1"
       nodesatellites_param="F,0,0,1,0,0,0,1 @ F,0,0,1,0,0,0,1 @ F,0,0,1,0,0,0,1 @ F,0,0,1,0,0,0,1 @ F,0,0,1,0,0,0,1 @ F,0,0,1,0,0,0,1 @ F,0,0,1,0,0,0,1 @ F,0,0,1,0,0,0,1"
       unit="px"
       method="auto"
       mode="F"
       radius="0"
       chamfer_steps="1"
       flexible="false"
       use_knot_distance="true"
       apply_no_radius="true"
       apply_with_radius="true"
       only_selected="false"
       hide_knots="false" /><inkscape:path-effect
       effect="fillet_chamfer"
       id="path-effect30897"
       is_visible="true"
       lpeversion="1"
       nodesatellites_param="F,0,0,1,0,1.0583333,0,1 @ F,0,0,1,0,0,0,1 @ F,0,0,1,0,1.0583333,0,1 @ F,0,0,1,0,0,0,1 @ F,0,0,1,0,1.0583333,0,1"
       unit="px"
       method="auto"
       mode="F"
       radius="4"
       chamfer_steps="1"
       flexible="false"
       use_knot_distance="true"
       apply_no_radius="true"
       apply_with_radius="true"
       only_selected="false"
       hide_knots="false" /><inkscape:path-effect
       effect="fillet_chamfer"
       id="path-effect30873"
       is_visible="true"
       lpeversion="1"
       nodesatellites_param="F,0,0,1,0,1.0583333,0,1 @ F,0,0,1,0,1.0583333,0,1 @ F,0,0,1,0,0,0,1 @ F,0,0,1,0,0,0,1"
       unit="px"
       method="auto"
       mode="F"
       radius="4"
       chamfer_steps="1"
       flexible="false"
       use_knot_distance="true"
       apply_no_radius="true"
       apply_with_radius="true"
       only_selected="false"
       hide_knots="false" /></defs><g
     inkscape:label="Layer 1"
     inkscape:groupmode="layer"
     id="layer1"
     transform="translate(-78.332886,-103.62327)"><path
       id="path32524"
       style="display:inline;fill:#deddda;fill-opacity:1;stroke-width:0.321789"
       d="m 100.55751,108.92746 c -0.0888,0 -0.17696,0.002 -0.26459,0.007 -0.0876,0.004 -0.17509,0.0109 -0.26148,0.0196 -0.08639,0.009 -0.171786,0.0196 -0.256831,0.0326 -0.08505,0.0129 -0.169622,0.0279 -0.253214,0.045 -0.167186,0.034 -0.331216,0.0763 -0.49196,0.12609 -0.160744,0.0498 -0.318349,0.10687 -0.471806,0.17156 -0.153456,0.0647 -0.302712,0.13674 -0.448035,0.21549 -0.145322,0.0787 -0.28637,0.16436 -0.422713,0.25632 -0.136342,0.092 -0.268292,0.19023 -0.394808,0.29455 -0.126516,0.10433 -0.247958,0.21489 -0.363802,0.33073 -0.115843,0.11585 -0.225888,0.23729 -0.330212,0.3638 -0.104325,0.12652 -0.202596,0.25795 -0.294556,0.3943 -0.09196,0.13634 -0.177566,0.27739 -0.256315,0.42271 -0.07875,0.14532 -0.150799,0.29509 -0.215491,0.44855 -0.06469,0.15346 -0.122295,0.31055 -0.172082,0.47129 -0.04979,0.16074 -0.09154,0.32529 -0.125574,0.49248 -0.01702,0.0836 -0.03204,0.16765 -0.04496,0.25269 -0.01292,0.085 -0.02384,0.17096 -0.03256,0.25735 -0.0087,0.0864 -0.01522,0.17334 -0.01964,0.26097 -0.0044,0.0876 -0.0067,0.17582 -0.0067,0.26458 v 69.13635 c 0,0.0888 0.0023,0.17695 0.0067,0.26458 0.0044,0.0876 0.01092,0.17458 0.01964,0.26097 0.0087,0.0864 0.01963,0.1723 0.03256,0.25735 0.01292,0.085 0.02794,0.1691 0.04496,0.2527 0.03404,0.16718 0.07579,0.33121 0.125574,0.49196 0.04979,0.16074 0.107391,0.31834 0.172082,0.4718 0.06469,0.15346 0.136742,0.30271 0.215491,0.44804 0.07875,0.14532 0.164355,0.28637 0.256315,0.42271 0.09196,0.13634 0.190231,0.26829 0.294556,0.39481 0.104324,0.12651 0.214369,0.24796 0.330212,0.3638 0.115844,0.11584 0.237286,0.22589 0.363802,0.33021 0.126516,0.10433 0.258466,0.2026 0.394808,0.29456 0.136343,0.092 0.277391,0.17756 0.422713,0.25631 0.145323,0.0788 0.294579,0.1508 0.448035,0.21549 0.153457,0.0647 0.311062,0.1223 0.471806,0.17209 0.160744,0.0498 0.324774,0.0921 0.49196,0.12609 0.08359,0.017 0.168169,0.032 0.253214,0.045 0.08505,0.0129 0.170441,0.0233 0.256831,0.032 0.0864,0.009 0.17385,0.0157 0.26148,0.0202 0.0876,0.004 0.17582,0.006 0.26459,0.006 h 45.55019 c 0.0888,0 0.17695,-0.002 0.26458,-0.006 0.0876,-0.004 0.17458,-0.0114 0.26097,-0.0202 0.0864,-0.009 0.1723,-0.0191 0.25735,-0.032 0.085,-0.0129 0.1691,-0.0279 0.25269,-0.045 0.16719,-0.034 0.33174,-0.0763 0.49248,-0.12609 0.16074,-0.0498 0.31783,-0.1074 0.47129,-0.17209 0.15345,-0.0647 0.30323,-0.13674 0.44855,-0.21549 0.14532,-0.0787 0.28637,-0.16435 0.42271,-0.25631 0.13635,-0.092 0.26778,-0.19023 0.39429,-0.29456 0.12652,-0.10432 0.24796,-0.21437 0.36381,-0.33021 0.11584,-0.11584 0.2264,-0.23729 0.33073,-0.3638 0.10432,-0.12652 0.20259,-0.25847 0.29455,-0.39481 0.092,-0.13634 0.17757,-0.27739 0.25632,-0.42271 0.0787,-0.14533 0.15028,-0.29458 0.21497,-0.44804 0.0647,-0.15346 0.12229,-0.31106 0.17208,-0.4718 0.0498,-0.16075 0.0921,-0.32478 0.12609,-0.49196 0.017,-0.0836 0.032,-0.16766 0.045,-0.2527 0.0129,-0.085 0.0238,-0.17096 0.0326,-0.25735 0.009,-0.0864 0.0152,-0.17334 0.0196,-0.26097 0.004,-0.0876 0.007,-0.17581 0.007,-0.26458 v -60.4268 l -13.83688,-13.83688 z" /><path
       id="path1223-3-6-7-5"
       style="opacity:0.5;mix-blend-mode:normal;fill:#3d3846;fill-opacity:1;stroke-width:0.265;stroke-dasharray:none"
       d="M 131.11639 121.37082 L 131.11639 121.99326 L 131.11883 121.99326 L 131.15951 131.68537 L 131.1591 131.68537 A 1.0627628 1.0627628 0 0 0 132.22213 132.74351 L 141.70269 132.74351 L 142.40364 132.74351 L 142.48908 132.74351 L 142.48908 132.26387 L 141.92766 132.26387 L 132.31407 122.57786 A 408439.97 408439.97 0 0 1 131.59603 121.85413 L 131.59603 121.37082 L 131.11639 121.37082 z "
       transform="matrix(1.2702488,0,0,1.2702488,-29.761165,-45.243287)" /><path
       style="fill:#deddda;fill-opacity:1;stroke-width:0.336616;stroke-dasharray:none"
       d="m 137.39856,121.70634 v -11.11098 -1.66749 l 13.8368,13.8368 h -12.77847 a 1.0583333,1.0583333 45 0 1 -1.05833,-1.05833 z"
       id="path1223-3-6-7"
       sodipodi:nodetypes="ccccc"
       inkscape:original-d="m 137.39856,122.76467 v -13.22764 -0.60916 l 13.8368,13.8368 z"
       inkscape:path-effect="#path-effect30873" /></g></svg>
