<?xml version="1.0" encoding="UTF-8" standalone="no"?>
<svg
   height="16"
   viewBox="0 0 16 16"
   width="16"
   version="1.1"
   id="svg4"
   sodipodi:docname="paper_simple.svg"
   inkscape:version="1.2.2 (b0a8486541, 2022-12-01)"
   xmlns:inkscape="http://www.inkscape.org/namespaces/inkscape"
   xmlns:sodipodi="http://sodipodi.sourceforge.net/DTD/sodipodi-0.dtd"
   xmlns="http://www.w3.org/2000/svg"
   xmlns:svg="http://www.w3.org/2000/svg">
  <defs
     id="defs8" />
  <sodipodi:namedview
     id="namedview6"
     pagecolor="#505050"
     bordercolor="#ffffff"
     borderopacity="1"
     inkscape:showpageshadow="0"
     inkscape:pageopacity="0"
     inkscape:pagecheckerboard="1"
     inkscape:deskcolor="#505050"
     showgrid="false"
     inkscape:zoom="34.559844"
     inkscape:cx="6.553849"
     inkscape:cy="9.3171717"
     inkscape:window-width="1920"
     inkscape:window-height="1011"
     inkscape:window-x="0"
     inkscape:window-y="0"
     inkscape:window-maximized="1"
     inkscape:current-layer="svg4" />
  <path
     d="m 5,0.5 c -1.644531,0 -3,1.355469 -3,3 v 9 c 0,1.644531 1.355469,3 3,3 h 6 c 1.644531,0 3,-1.355469 3,-3 V 5 C 14,4.734375 13.894531,4.480469 13.707031,4.292969 l -3.5,-3.5 C 10.019531,0.605469 9.765625,0.5 9.5,0.5 Z m 0,2 H 9 V 4 c 0,1 0.5,1.5 1.5,1.5 H 12 v 7 c 0,0.570312 -0.429688,1 -1,1 H 5 c -0.570312,0 -1,-0.429688 -1,-1 v -9 c 0,-0.570312 0.429688,-1 1,-1 z m 0,0"
     fill="#2e3436"
     id="path2"
     style="fill:#ffffff;fill-opacity:1" />
</svg>
