<?xml version="1.0" encoding="UTF-8" standalone="no"?>
<svg
   height="16px"
   viewBox="0 0 16 16"
   width="16px"
   version="1.1"
   id="svg44"
   sodipodi:docname="retry.svg"
   inkscape:version="1.2.2 (b0a8486541, 2022-12-01)"
   xmlns:inkscape="http://www.inkscape.org/namespaces/inkscape"
   xmlns:sodipodi="http://sodipodi.sourceforge.net/DTD/sodipodi-0.dtd"
   xmlns="http://www.w3.org/2000/svg"
   xmlns:svg="http://www.w3.org/2000/svg">
  <defs
     id="defs48" />
  <sodipodi:namedview
     id="namedview46"
     pagecolor="#505050"
     bordercolor="#ffffff"
     borderopacity="1"
     inkscape:showpageshadow="0"
     inkscape:pageopacity="0"
     inkscape:pagecheckerboard="1"
     inkscape:deskcolor="#505050"
     showgrid="false"
     inkscape:zoom="48.875"
     inkscape:cx="8.0102302"
     inkscape:cy="8"
     inkscape:window-width="1920"
     inkscape:window-height="1011"
     inkscape:window-x="0"
     inkscape:window-y="0"
     inkscape:window-maximized="1"
     inkscape:current-layer="svg44" />
  <path
     d="m 7.40625 1 c -0.613281 0.007812 -1.234375 0.089844 -1.847656 0.257812 c -3.273438 0.875 -5.558594 3.851563 -5.558594 7.242188 s 2.285156 6.367188 5.558594 7.242188 c 3.273437 0.878906 6.742187 -0.554688 8.4375 -3.492188 c 0.277344 -0.476562 0.109375 -1.089844 -0.367188 -1.363281 c -0.476562 -0.277344 -1.089844 -0.113281 -1.367187 0.363281 c -1.246094 2.160156 -3.777344 3.207031 -6.1875 2.5625 c -2.40625 -0.644531 -4.074219 -2.816406 -4.074219 -5.3125 s 1.667969 -4.667969 4.074219 -5.3125 c 2.410156 -0.644531 4.941406 0.402344 6.1875 2.5625 c 0.058593 0.085938 0.125 0.164062 0.203125 0.230469 l -0.019532 0.011719 l -0.007812 0.007812 h -1.4375 c -0.550781 0 -1 0.449219 -1 1 v 1 h 6 v -6 h -1 c -0.550781 0 -1 0.449219 -1 1 v 1.6875 l -0.015625 0.011719 l -0.011719 0.011719 c -1.277344 -2.179688 -3.53125 -3.519532 -5.953125 -3.691407 c -0.203125 -0.015625 -0.40625 -0.019531 -0.613281 -0.015625 z m 0 0"
     id="path42"
     style="fill:#ffffff" />
</svg>
