<?xml version="1.0" encoding="UTF-8" standalone="no"?>
<svg
   height="16px"
   viewBox="0 0 16 16"
   width="16px"
   version="1.1"
   id="svg137"
   sodipodi:docname="rock_simple.svg"
   inkscape:version="1.2.2 (b0a8486541, 2022-12-01)"
   xmlns:inkscape="http://www.inkscape.org/namespaces/inkscape"
   xmlns:sodipodi="http://sodipodi.sourceforge.net/DTD/sodipodi-0.dtd"
   xmlns="http://www.w3.org/2000/svg"
   xmlns:svg="http://www.w3.org/2000/svg">
  <defs
     id="defs141" />
  <sodipodi:namedview
     id="namedview139"
     pagecolor="#505050"
     bordercolor="#ffffff"
     borderopacity="1"
     inkscape:showpageshadow="0"
     inkscape:pageopacity="0"
     inkscape:pagecheckerboard="1"
     inkscape:deskcolor="#505050"
     showgrid="false"
     inkscape:zoom="16"
     inkscape:cx="9.40625"
     inkscape:cy="9.75"
     inkscape:window-width="1920"
     inkscape:window-height="1011"
     inkscape:window-x="0"
     inkscape:window-y="0"
     inkscape:window-maximized="1"
     inkscape:current-layer="svg137" />
  <path
     id="path133"
     d="M 4.0507812 2 C 3.7031256 2 3.3789056 2.1796881 3.1992188 2.4804688 L 0.14453125 7.4804688 C -0.050780755 7.8007804 -0.050780755 8.1992196 0.14453125 8.5195312 L 3.1992188 13.519531 C 3.3789056 13.820312 3.7031256 14 4.0507812 14 L 12.019531 14 C 12.371094 14 12.699219 13.816405 12.878906 13.511719 L 15.859375 8.5117188 C 16.046875 8.1953121 16.046875 7.8046879 15.859375 7.4882812 L 12.878906 2.4882812 C 12.699219 2.1835946 12.371094 2 12.019531 2 L 4.0507812 2 z M 6.390625 4 L 11.451172 4 L 13.306641 7.1132812 L 6.390625 4 z M 4.2753906 4.5527344 L 8.2363281 6.2539062 L 12.642578 8.125 L 8.2363281 9.9960938 L 4.4707031 11.765625 L 2.171875 8 L 4.2753906 4.5527344 z M 13.109375 9.21875 L 11.451172 12 L 6.84375 12 L 13.109375 9.21875 z "
     style="fill:#ffffff;fill-opacity:1" />
</svg>
