<?xml version="1.0" encoding="UTF-8" standalone="no"?>
<svg
   height="16"
   viewBox="0 0 16 16.000001"
   width="16"
   version="1.1"
   id="svg11261"
   sodipodi:docname="scissors_simple.svg"
   inkscape:version="1.2.2 (b0a8486541, 2022-12-01)"
   xml:space="preserve"
   xmlns:inkscape="http://www.inkscape.org/namespaces/inkscape"
   xmlns:sodipodi="http://sodipodi.sourceforge.net/DTD/sodipodi-0.dtd"
   xmlns="http://www.w3.org/2000/svg"
   xmlns:svg="http://www.w3.org/2000/svg"><defs
     id="defs11265" /><sodipodi:namedview
     id="namedview11263"
     pagecolor="#505050"
     bordercolor="#ffffff"
     borderopacity="1"
     inkscape:showpageshadow="0"
     inkscape:pageopacity="0"
     inkscape:pagecheckerboard="1"
     inkscape:deskcolor="#505050"
     showgrid="false"
     inkscape:zoom="24.4375"
     inkscape:cx="9.8414322"
     inkscape:cy="11.171355"
     inkscape:window-width="1920"
     inkscape:window-height="1011"
     inkscape:window-x="0"
     inkscape:window-y="0"
     inkscape:window-maximized="1"
     inkscape:current-layer="svg11261" /><path
     d="m 12.066406,0.50070569 c -0.08594,-0.00391 -0.171875,0 -0.257812,0.015625 -0.261719,0.054687 -0.492188,0.207031 -0.636719,0.425781 L 8.7734384,4.5007057 H 11.1875 l 1.640625,-2.441406 c 0.148437,-0.21875 0.203125,-0.488282 0.152344,-0.75 -0.05078,-0.261719 -0.203125,-0.49218801 -0.421875,-0.64062501 -0.144532,-0.097657 -0.316406,-0.152344 -0.492188,-0.167969 z M 3,1.5007057 c -1.648438,0 -3,1.351562 -3,3 0,1.648438 1.351562,3 3,3 h 3.7539064 l -1.585937,2.355469 -0.652344,0.9687493 -0.0625,0.09766 c -0.00391,0.0039 -0.00781,0.0078 -0.00781,0.01172 C 4.1640624,11.39133 4,11.926486 4,12.500705 4,14.149144 5.3515624,15.500706 7.0000004,15.500706 8.6484384,15.500706 10,14.149144 10,12.500705 10,11.113986 9.0390624,9.9342997 7.7500004,9.5983617 l 1.417969,-2.097656 H 15 c 0.550781,0 1,-0.449219 1,-1 0,-0.550781 -0.449219,-1 -1,-1 H 5.8281254 c 0.109375,-0.3125 0.171875,-0.648438 0.171875,-1 0,-1.648438 -1.351562,-3 -3.0000004,-3 z m 0,1.5 c 0.05078,0 0.101562,0.00391 0.152344,0.00781 0.04297,0.00391 0.08203,0.011719 0.121094,0.019532 0.04687,0.00781 0.09375,0.015625 0.136718,0.03125 0.503906,0.136718 0.8945324,0.527344 1.0312504,1.03125 0.015625,0.042968 0.023438,0.089844 0.03125,0.136718 0.00781,0.039063 0.015625,0.078126 0.019532,0.121094 v 0.00391 c 0.00391,0.046874 0.00781,0.097655 0.00781,0.148436 0,0.132812 -0.015625,0.257812 -0.050781,0.382812 v 0.011719 c -0.035157,0.125 -0.085938,0.246094 -0.148438,0.355469 -0.054687,0.089844 -0.113281,0.171875 -0.179687,0.25 h -0.011719 c -0.2851564,0.316406 -0.6875004,0.496094 -1.1093754,0.5 -0.136719,0 -0.265625,-0.019531 -0.390625,-0.050781 -0.519531,-0.136719 -0.921875,-0.539063 -1.058594,-1.0625 -0.03125,-0.121094 -0.05078,-0.25 -0.05078,-0.386719 0,-0.136719 0.01953,-0.265625 0.05078,-0.386719 0.136719,-0.523437 0.539063,-0.925781 1.058594,-1.0625 0.125,-0.03125 0.253906,-0.050781 0.390625,-0.050781 z m 4.0000004,7.9999993 c 0.050781,0 0.101562,0.0039 0.152344,0.0078 0.042968,0.0039 0.082031,0.01172 0.121094,0.01953 0.046874,0.0078 0.09375,0.01563 0.136718,0.03125 0.503906,0.136718 0.894532,0.527344 1.03125,1.03125 0.015625,0.04297 0.023438,0.08984 0.03125,0.136718 0.00781,0.03906 0.015625,0.07813 0.019532,0.121094 v 0.0039 c 0.00391,0.0469 0.00781,0.09768 0.00781,0.148458 0,0.136719 -0.019531,0.265625 -0.050781,0.386719 -0.136719,0.523437 -0.539063,0.925782 -1.058594,1.062501 -0.125,0.03125 -0.253906,0.05078 -0.390625,0.05078 -0.136719,0 -0.265625,-0.01953 -0.390625,-0.05078 -0.519531,-0.136719 -0.921875,-0.539064 -1.058594,-1.062501 -0.03125,-0.121094 -0.050781,-0.25 -0.050781,-0.386719 0,-0.01953 0,-0.03906 0.00391,-0.05469 0,-0.0039 0.00391,-0.0039 0.00391,-0.0039 0.035157,-0.71875 0.570313,-1.308594 1.28125,-1.414062 l 0.011719,-0.01563 c 0.062492,-0.0078 0.128899,-0.01172 0.199211,-0.01172 z m 0,0"
     fill="#2e3436"
     id="path11271"
     style="fill:#ffffff;fill-opacity:1" /></svg>
