<?xml version="1.0" encoding="UTF-8" standalone="no"?>
<svg
   height="90"
   viewBox="0 0 90 90.000006"
   width="90"
   version="1.1"
   id="svg11261"
   sodipodi:docname="scissors.svg"
   inkscape:version="1.2.2 (b0a8486541, 2022-12-01)"
   xml:space="preserve"
   xmlns:inkscape="http://www.inkscape.org/namespaces/inkscape"
   xmlns:sodipodi="http://sodipodi.sourceforge.net/DTD/sodipodi-0.dtd"
   xmlns:xlink="http://www.w3.org/1999/xlink"
   xmlns="http://www.w3.org/2000/svg"
   xmlns:svg="http://www.w3.org/2000/svg"><defs
     id="defs11265"><linearGradient
       inkscape:collect="always"
       id="linearGradient28952"><stop
         style="stop-color:#5e5c64;stop-opacity:1;"
         offset="0"
         id="stop28948" /><stop
         style="stop-color:#77767b;stop-opacity:1;"
         offset="1"
         id="stop28950" /></linearGradient><linearGradient
       inkscape:collect="always"
       id="linearGradient26674"><stop
         style="stop-color:#5e5c64;stop-opacity:1;"
         offset="0"
         id="stop26670" /><stop
         style="stop-color:#5e5c64;stop-opacity:1;"
         offset="0.8530708"
         id="stop28130" /><stop
         style="stop-color:#99989c;stop-opacity:1;"
         offset="1"
         id="stop26672" /></linearGradient><linearGradient
       inkscape:collect="always"
       id="linearGradient25900"><stop
         style="stop-color:#deddda;stop-opacity:1;"
         offset="0"
         id="stop25896" /><stop
         style="stop-color:#f6f5f4;stop-opacity:1;"
         offset="1"
         id="stop25898" /></linearGradient><linearGradient
       inkscape:collect="always"
       id="linearGradient25856"><stop
         style="stop-color:#9a9996;stop-opacity:1;"
         offset="0"
         id="stop25854" /><stop
         style="stop-color:#c0bfbc;stop-opacity:1;"
         offset="1"
         id="stop25852" /></linearGradient><linearGradient
       inkscape:collect="always"
       id="linearGradient25752"><stop
         style="stop-color:#9a9996;stop-opacity:1;"
         offset="0"
         id="stop25750" /><stop
         style="stop-color:#c0bfbc;stop-opacity:1;"
         offset="1"
         id="stop25748" /></linearGradient><linearGradient
       inkscape:collect="always"
       id="linearGradient8131"><stop
         style="stop-color:#000000;stop-opacity:1"
         offset="0"
         id="stop8127" /><stop
         style="stop-color:#4d4d4d;stop-opacity:0;"
         offset="1"
         id="stop8129" /></linearGradient><linearGradient
       inkscape:collect="always"
       xlink:href="#linearGradient8131"
       id="linearGradient8389"
       gradientUnits="userSpaceOnUse"
       gradientTransform="matrix(-0.02056028,5.1596232,5.1596232,0.02056028,8.4874179,10.410499)"
       x1="6"
       y1="6.5003529"
       x2="6.4445472"
       y2="6.5003529" /><linearGradient
       inkscape:collect="always"
       xlink:href="#linearGradient25752"
       id="linearGradient25754"
       x1="39.277424"
       y1="49.937691"
       x2="69.91024"
       y2="6.522346"
       gradientUnits="userSpaceOnUse"
       gradientTransform="matrix(0.97123091,0,0,0.97123091,-0.00938658,0.14507372)" /><linearGradient
       inkscape:collect="always"
       xlink:href="#linearGradient25856"
       id="linearGradient25858"
       x1="33.673725"
       y1="37.212864"
       x2="86.798729"
       y2="37.212864"
       gradientUnits="userSpaceOnUse"
       gradientTransform="matrix(0.97123091,0,0,0.97123091,-0.00938658,0.14507372)" /><linearGradient
       inkscape:collect="always"
       xlink:href="#linearGradient25900"
       id="linearGradient25902"
       x1="45.670229"
       y1="36.501411"
       x2="50.950117"
       y2="36.501411"
       gradientUnits="userSpaceOnUse"
       gradientTransform="matrix(0.97123091,0,0,0.97123091,0.00234444,0.13291295)" /><linearGradient
       inkscape:collect="always"
       xlink:href="#linearGradient26674"
       id="linearGradient26676"
       x1="33.673725"
       y1="43.625"
       x2="86.798729"
       y2="43.625"
       gradientUnits="userSpaceOnUse"
       gradientTransform="matrix(0.97123091,0,0,0.97123091,-0.00938658,0.14507372)" /><linearGradient
       inkscape:collect="always"
       xlink:href="#linearGradient28952"
       id="linearGradient28954"
       x1="43.67495"
       y1="52.918369"
       x2="73.481712"
       y2="8.9431181"
       gradientUnits="userSpaceOnUse"
       gradientTransform="matrix(0.97123091,0,0,0.97123091,-0.00938658,0.14507372)" /></defs><sodipodi:namedview
     id="namedview11263"
     pagecolor="#505050"
     bordercolor="#ffffff"
     borderopacity="1"
     inkscape:showpageshadow="0"
     inkscape:pageopacity="0"
     inkscape:pagecheckerboard="1"
     inkscape:deskcolor="#505050"
     showgrid="false"
     inkscape:zoom="16"
     inkscape:cx="60.8125"
     inkscape:cy="40.125"
     inkscape:window-width="1920"
     inkscape:window-height="1011"
     inkscape:window-x="0"
     inkscape:window-y="0"
     inkscape:window-maximized="1"
     inkscape:current-layer="layer1"
     showguides="false"><sodipodi:guide
       position="39.0074,28.8762"
       inkscape:color="rgb(167,0,255)"
       inkscape:label="Measure"
       orientation="1,0"
       id="guide20650"
       inkscape:locked="false" /><sodipodi:guide
       position="39.0074,28.8762"
       inkscape:color="rgb(167,0,255)"
       inkscape:label=""
       orientation="-0,1"
       id="guide20652"
       inkscape:locked="false" /><sodipodi:guide
       position="39.0074,28.8762"
       inkscape:color="rgb(167,0,255)"
       inkscape:label="Start"
       orientation="1,0"
       id="guide20654"
       inkscape:locked="false" /><sodipodi:guide
       position="39.0074,26.6328"
       inkscape:color="rgb(167,0,255)"
       inkscape:label="End"
       orientation="-0,1"
       id="guide20656"
       inkscape:locked="false" /><sodipodi:guide
       position="39.0074,26.6328"
       inkscape:color="rgb(167,0,255)"
       inkscape:label=""
       orientation="1,0"
       id="guide20658"
       inkscape:locked="false" /><sodipodi:guide
       position="39.0074,28.8761"
       inkscape:color="rgb(167,0,255)"
       inkscape:label="Crossing 1"
       orientation="-0,-1"
       id="guide20660"
       inkscape:locked="false" /><sodipodi:guide
       position="39.0074,27.7141"
       inkscape:color="rgb(167,0,255)"
       inkscape:label="Crossing 2"
       orientation="-0,-1"
       id="guide20662"
       inkscape:locked="false" /></sodipodi:namedview><g
     inkscape:groupmode="layer"
     id="layer1"
     inkscape:label="Scissors"
     transform="translate(3.0170265,-0.04269461)"><path
       id="rect8073-2-9"
       style="opacity:0.4;fill:url(#linearGradient8389);stroke-width:5.16777"
       d="m 36.741988,41.48133 -1.2789,1.951061 12.136832,0.418075 1.703332,-2.460268 z"
       sodipodi:nodetypes="ccccc" /><path
       id="rect7860-9"
       style="fill:url(#linearGradient26676);fill-opacity:1;stroke-width:5.16777"
       d="m 32.695578,32.195694 v 5.159664 5.159664 h 5.159663 13.060401 23.374136 4.842777 c 0.974841,0 1.884871,-0.267647 2.660915,-0.733767 1.499492,-0.900646 2.49875,-2.542286 2.49875,-4.425897 V 32.195694 H 79.132555 50.915642 37.855241 Z"
       sodipodi:nodetypes="ccccccsssccccc" /><path
       id="rect7860"
       style="opacity:1;fill:url(#linearGradient25858);fill-opacity:1;stroke-width:5.16777"
       d="m 32.695578,31.127693 v 5.159665 5.159664 h 5.159663 13.060401 28.216913 c 2.85845,0 5.159665,-2.301212 5.159665,-5.159664 V 31.127693 H 79.132555 50.915642 37.855241 Z"
       sodipodi:nodetypes="cccccssccccc" /><path
       id="path7595-4"
       style="fill:#e01b24;fill-opacity:1;stroke-width:5.51229"
       d="M 16.184652,9.4931722 A 16.510925,16.510925 0 0 0 -0.326273,26.004097 16.510925,16.510925 0 0 0 16.184652,42.515022 H 32.695578 V 34.496046 31.507739 26.004097 A 16.510925,16.510925 0 0 0 16.184652,9.4931722 Z m 0,8.2554628 a 8.2554627,8.2554627 0 0 1 8.255462,8.255462 8.2554627,8.2554627 0 0 1 -8.255462,8.255463 8.2554627,8.2554627 0 0 1 -8.2554622,-8.255463 8.2554627,8.2554627 0 0 1 8.2554622,-8.255462 z" /><path
       id="rect8073-2-9-0-5"
       style="opacity:0.05;fill:#000000;fill-opacity:1;stroke-width:5.16777"
       d="m 44.767907,31.127693 h -1.744276 l -7.748222,11.387329 h 1.753292 z"
       sodipodi:nodetypes="ccccc" /><path
       id="rect7860-1-4"
       style="display:inline;fill:url(#linearGradient28954);fill-opacity:1;stroke-width:5.16777"
       d="m 43.211366,52.08483 -4.271012,-2.894927 -4.271012,-2.894926 2.894927,-4.271012 7.327774,-10.811 L 60.723669,7.8558694 C 62.327453,5.4897304 65.523465,4.8759931 67.889602,6.479778 L 72.160619,9.3747078 69.265696,13.645721 53.43407,37.002816 46.106293,47.813815 Z" /><path
       id="rect7860-1"
       style="display:inline;fill:url(#linearGradient25754);fill-opacity:1;stroke-width:5.16777"
       d="M 42.409073,51.541029 38.138061,48.646101 33.867049,45.751175 36.761975,41.480163 44.08975,30.669164 59.921375,7.3120679 C 61.52516,4.9459294 64.72117,4.3321915 67.087308,5.9359771 L 71.358325,8.8309066 68.463402,13.10192 52.631776,36.459014 45.303999,47.270013 Z" /><path
       id="path7595"
       style="opacity:1;fill:#f66151;fill-opacity:1;stroke-width:5.51229"
       d="M 16.184652,8.4251718 A 16.510925,16.510925 0 0 0 -0.32627271,24.936096 16.510925,16.510925 0 0 0 16.184652,41.447022 H 32.695578 V 33.428045 30.439738 24.936096 A 16.510925,16.510925 0 0 0 16.184652,8.4251718 Z m 0,8.2554632 a 8.2554627,8.2554627 0 0 1 8.255462,8.255461 8.2554627,8.2554627 0 0 1 -8.255462,8.255464 8.2554627,8.2554627 0 0 1 -8.2554622,-8.255464 8.2554627,8.2554627 0 0 1 8.2554622,-8.255461 z" /><path
       id="path7595-9-5"
       style="fill:#e01b24;fill-opacity:1;stroke-width:5.52725"
       d="m 52.925935,77.775863 a 16.555726,16.555726 0 0 1 -22.99322,4.415429 16.555726,16.555726 0 0 1 -4.415429,-22.993218 l 9.288894,-13.704326 6.655882,4.511404 2.480335,1.681197 4.568111,3.096296 a 16.555726,16.555726 0 0 1 4.415427,22.993218 z m -6.852166,-4.644444 a 8.2778636,8.2778636 0 0 0 -2.20771,-11.496618 8.2778636,8.2778636 0 0 0 -11.496614,2.207718 8.2778636,8.2778636 0 0 0 2.207717,11.496611 8.2778636,8.2778636 0 0 0 11.496607,-2.207711 z" /><path
       id="path7595-9"
       style="fill:#f66151;fill-opacity:1;stroke-width:5.52725"
       d="M 52.925935,76.647749 A 16.555726,16.555726 0 0 1 29.932715,81.063177 16.555726,16.555726 0 0 1 25.517286,58.06996 l 9.288894,-13.704327 6.655882,4.511406 2.480335,1.681195 4.568111,3.096296 a 16.555726,16.555726 0 0 1 4.415427,22.993219 z m -6.852166,-4.644444 a 8.2778636,8.2778636 0 0 0 -2.20771,-11.496619 8.2778636,8.2778636 0 0 0 -11.496614,2.207719 8.2778636,8.2778636 0 0 0 2.207717,11.496611 8.2778636,8.2778636 0 0 0 11.496607,-2.207711 z" /><g
       inkscape:groupmode="layer"
       id="layer3"
       inkscape:label="Circle"
       transform="translate(-0.40776453,0.42270287)"><ellipse
         style="opacity:1;fill:#9a9996;fill-opacity:1;stroke-width:27.1212;stroke-linecap:round;stroke-linejoin:round"
         id="path24577-3-2"
         cx="46.922676"
         cy="36.145096"
         rx="2.5639949"
         ry="2.528661" /><ellipse
         style="fill:#c0bfbc;fill-opacity:1;stroke-width:27.1212;stroke-linecap:round;stroke-linejoin:round"
         id="path24577-3"
         cx="46.922676"
         cy="35.893921"
         rx="2.5639949"
         ry="2.528661" /><ellipse
         style="opacity:1;fill:url(#linearGradient25902);fill-opacity:1;stroke-width:27.1212;stroke-linecap:round;stroke-linejoin:round"
         id="path24577"
         cx="46.922676"
         cy="35.584213"
         rx="2.5639949"
         ry="2.528661" /></g></g></svg>
