<?xml version="1.0" encoding="UTF-8" standalone="no"?>
<svg
   height="90"
   viewBox="0 0 90 90.000003"
   width="90"
   version="1.1"
   id="svg11261"
   sodipodi:docname="welcome.svg"
   inkscape:version="1.2.2 (b0a8486541, 2022-12-01)"
   xml:space="preserve"
   xmlns:inkscape="http://www.inkscape.org/namespaces/inkscape"
   xmlns:sodipodi="http://sodipodi.sourceforge.net/DTD/sodipodi-0.dtd"
   xmlns:xlink="http://www.w3.org/1999/xlink"
   xmlns="http://www.w3.org/2000/svg"
   xmlns:svg="http://www.w3.org/2000/svg"><defs
     id="defs11265"><linearGradient
       inkscape:collect="always"
       id="linearGradient30958"><stop
         style="stop-color:#ff9628;stop-opacity:1;"
         offset="0"
         id="stop30954" /><stop
         style="stop-color:#9d4100;stop-opacity:1;"
         offset="1"
         id="stop30956" /></linearGradient><linearGradient
       inkscape:collect="always"
       id="linearGradient30905"><stop
         style="stop-color:#ffca28;stop-opacity:1;"
         offset="0"
         id="stop30901" /><stop
         style="stop-color:#ffa62d;stop-opacity:1;"
         offset="1"
         id="stop30903" /></linearGradient><linearGradient
       inkscape:collect="always"
       xlink:href="#linearGradient30905"
       id="linearGradient30907"
       x1="0.81018883"
       y1="-0.54240513"
       x2="17.690262"
       y2="16.337669"
       gradientUnits="userSpaceOnUse"
       gradientTransform="matrix(4.8700826,0,0,4.8700826,5.9931592,10.370707)" /><linearGradient
       inkscape:collect="always"
       xlink:href="#linearGradient30958"
       id="linearGradient30960"
       x1="1.2800902"
       y1="1.1659766"
       x2="12.594094"
       y2="12.47998"
       gradientUnits="userSpaceOnUse"
       gradientTransform="matrix(4.9168004,0,0,4.9168004,8.6147803,5.1684601)" /></defs><sodipodi:namedview
     id="namedview11263"
     pagecolor="#505050"
     bordercolor="#ffffff"
     borderopacity="1"
     inkscape:showpageshadow="0"
     inkscape:pageopacity="0"
     inkscape:pagecheckerboard="1"
     inkscape:deskcolor="#505050"
     showgrid="false"
     inkscape:zoom="5.6568543"
     inkscape:cx="38.625708"
     inkscape:cy="43.663844"
     inkscape:window-width="1920"
     inkscape:window-height="1011"
     inkscape:window-x="0"
     inkscape:window-y="0"
     inkscape:window-maximized="1"
     inkscape:current-layer="svg11261" /><path
     d="m 15.436258,10.376705 c 1.928485,-1.9284862 5.02492,-1.9284862 6.953406,0 l 22.59857,22.598567 c 0,0 1.738351,1.738352 3.476702,-2e-6 1.738351,-1.738351 0,-3.476703 0,-3.476703 L 32.819777,13.853404 c -1.928487,-1.928485 -1.928487,-5.0249202 0,-6.9534054 1.928482,-1.9284858 5.024921,-1.9284858 6.953403,0 L 69.325158,36.451973 c 1.738351,1.738352 3.476699,0 3.476699,0 l 0.298765,-12.16846 c -0.02713,-1.330927 0.50251,-2.593945 1.439592,-3.531024 4.060673,-3.490289 8.392967,0.407426 8.392967,3.531025 v 20.860219 c 0.298798,5.215054 -1.629683,10.593081 -4.916255,13.906802 L 57.156701,79.910758 c -10.430106,10.430116 -20.860213,0 -20.860213,0 L 8.4828508,52.097141 c -1.9284846,-1.928488 -1.9284846,-5.024921 1e-6,-6.953407 1.9284862,-1.928485 5.0249202,-1.928485 6.9534052,-1e-6 l 12.168462,12.16846 c 0,0 1.73835,1.738342 3.476699,0 1.738354,-1.738347 0,-3.476702 0,-3.476702 L 8.4828518,31.236922 c -1.9284853,-1.928485 -1.9284853,-5.024919 0,-6.953405 1.9284862,-1.928486 5.0249202,-1.928486 6.9534062,-1e-6 l 19.121864,19.121865 c 0,0 1.738354,1.738352 3.476703,0 1.738351,-1.738352 0,-3.476703 0,-3.476703 L 15.436258,17.33011 c -1.928486,-1.928485 -1.928486,-5.02492 0,-6.953405 z m 0,0"
     id="path30362-4"
     style="fill:url(#linearGradient30960);fill-opacity:1;stroke-width:4.91685" /><path
     d="m 4.9089551,1.9647667 c 0.3503574,-0.350358 0.9129018,-0.350358 1.2632592,0 l 4.1055927,4.1055922 c 0,0 0.315814,0.3158148 0.631629,0 0.315815,-0.3158148 0,-0.6316296 0,-0.6316296 L 8.067103,2.5963967 c -0.3503573,-0.350358 -0.3503573,-0.912902 0,-1.26326 0.3503573,-0.35035698 0.9129018,-0.35035698 1.2632592,0 l 5.3688508,5.3688518 c 0.315816,0.3158148 0.63163,0 0.63163,0 l 0.05428,-2.2107038 c -0.0049,-0.2417961 0.09129,-0.471255 0.261534,-0.641498 0.737724,-0.634097 1.524792,0.07402 1.524792,0.641498 v 3.7897777 c 0.05428,0.9474444 -0.296075,1.9244966 -0.893163,2.5265186 l -3.789779,3.789777 c -1.894889,1.894889 -3.7897774,0 -3.7897774,0 L 3.6456959,9.5443216 c -0.3503573,-0.3503573 -0.3503573,-0.9129018 10e-8,-1.2632592 0.3503573,-0.3503573 0.9129018,-0.3503573 1.2632592,0 l 2.2107035,2.2107036 c 0,0 0.3158147,0.315815 0.6316295,0 0.3158148,-0.315815 0,-0.6316296 0,-0.6316296 L 3.6456959,5.7545441 c -0.3503573,-0.3503573 -0.3503573,-0.9129018 0,-1.2632592 0.3503574,-0.3503573 0.9129019,-0.3503573 1.2632592,0 l 3.4739627,3.4739628 c 0,0 0.3158148,0.3158147 0.6316296,0 0.3158148,-0.3158148 0,-0.6316296 0,-0.6316296 L 4.9089551,3.2280257 c -0.3503573,-0.350357 -0.3503573,-0.912901 0,-1.263259 z m 0,0"
     id="path27331"
     style="fill:#000000;fill-opacity:0;stroke-width:0.893259" /><text
     xml:space="preserve"
     style="opacity:0.5;fill:#9c9c9c;fill-opacity:1;stroke-width:1.00157"
     x="21.102581"
     y="12.009116"
     id="text28120"><tspan
       sodipodi:role="line"
       id="tspan28118"
       x="21.102581"
       y="12.009116"></tspan></text><path
     d="m 15.670975,12.605441 c 1.910161,-1.910161 4.977175,-1.910161 6.887337,0 l 22.383843,22.383845 c 0,0 1.721835,1.721834 3.44367,-2e-6 1.721838,-1.721836 0,-3.443669 0,-3.443669 L 32.88932,16.049107 c -1.910162,-1.910162 -1.910162,-4.977175 0,-6.887337 1.910161,-1.9101617 4.977175,-1.9101617 6.887337,0 L 69.04784,38.432952 c 1.721831,1.721835 3.443666,0 3.443666,0 l 0.295951,-12.052841 c -0.0268,-1.31828 0.49772,-2.569297 1.425899,-3.497472 4.022095,-3.457126 8.313227,0.40355 8.313227,3.497474 v 20.662011 c 0.295953,5.165503 -1.614213,10.492427 -4.869557,13.774674 L 56.995008,81.47881 c -10.331001,10.331007 -20.662007,0 -20.662007,0 L 8.7836362,53.929464 c -1.9101604,-1.910162 -1.9101604,-4.977176 9e-7,-6.887337 1.9101619,-1.910162 4.9771749,-1.910162 6.8873359,-10e-7 l 12.05284,12.052839 c 0,0 1.721834,1.721833 3.443668,0 1.721834,-1.721832 0,-3.443669 0,-3.443669 L 8.7836371,33.267453 c -1.9101613,-1.910162 -1.9101613,-4.977176 0,-6.887337 1.9101619,-1.910162 4.9771749,-1.910162 6.8873379,-1e-6 L 34.61115,45.320291 c 0,0 1.721835,1.721835 3.443668,0 1.721835,-1.721834 0,-3.443668 0,-3.443668 L 15.670975,19.492778 c -1.910163,-1.910162 -1.910163,-4.977175 0,-6.887337 z m 0,0"
     id="path30362"
     style="fill:url(#linearGradient30907);fill-opacity:1;stroke-width:4.87009" /></svg>
